# xmcd
#
# Track frame offsets:
#	150
#	11282
#	29669
#	42555
#	67578
#	85943
#	97050
#	111595
#	136970
#	156123
#	169892
#	182194
#	196016
#	210065
#	222647
#	236600
#	251729
#	270147
#	282527
#	296261
#
# Disc length: 4267 seconds
#
# Revision: 0
# Processed by: cddbd v1.5.2PL0 Copyright (c) Steve Scherf et al.
# Submitted via: EasyCDDAExtractor 10.2.0.1
#
DISCID=2010a914
DTITLE=David Allan Coe - The Mysterious Rhinestone Cowboy - Once Upon A Time
DYEAR=1993
DGENRE=Country
TTITLE0=A Sad Country Song
TTITLE1=Crazy Mary
TTITLE2=River
TTITLE3=The 3rd Of August
TTITLE4=Bossier City
TTITLE5=Atlanta Song
TTITLE6=Old Man Tell Me
TTITLE7=Desperados Waiting For The Train
TTITLE8=I Still Sing The Old Songs
TTITLE9=The Old Grey Goose Is Dead
TTITLE10=Would You Lay With Me (In A Field Of Stone)
TTITLE11=Jody Like A Melody
TTITLE12=Loneliness In Ruby's Eyes
TTITLE13=Would You Be My Lady
TTITLE14=Sweet Vibrations (Some Folks Call It Love)
TTITLE15=Another Pretty Country Song
TTITLE16=Piece Of Wood And Steel
TTITLE17=Fraulein
TTITLE18=Shine It On
TTITLE19=You Never Even Called Me By My Name
EXTD=
EXTT0=
EXTT1=
EXTT2=
EXTT3=
EXTT4=
EXTT5=
EXTT6=
EXTT7=
EXTT8=
EXTT9=
EXTT10=
EXTT11=
EXTT12=
EXTT13=
EXTT14=
EXTT15=
EXTT16=
EXTT17=
EXTT18=
EXTT19=
PLAYORDER=
